<svg width="410" height="414" viewBox="0 0 410 414" fill="none" xmlns="http://www.w3.org/2000/svg">
<g filter="url(#filter0_d_2_6)">
<circle cx="204.5" cy="206.5" r="197.5" fill="#63B3DF"/>
<circle cx="204.5" cy="206.5" r="194.5" stroke="#34586B" stroke-width="6"/>
</g>
<g filter="url(#filter1_d_2_6)">
<path d="M161.092 40.8807L225.508 143.014L342.548 113.313L265.319 206.137L329.734 308.27L217.588 263.505L140.358 356.329L148.278 235.838L36.1323 191.073L153.173 161.371L161.092 40.8807Z" fill="#34586B"/>
<path d="M161.49 42.449L225.085 143.281L225.279 143.588L225.631 143.499L341.18 114.176L264.934 205.817L264.702 206.096L264.896 206.403L328.49 307.236L217.773 263.04L217.436 262.906L217.204 263.185L140.958 354.826L148.777 235.871L148.801 235.508L148.463 235.374L37.7468 191.179L153.296 161.856L153.648 161.766L153.672 161.404L161.49 42.449Z" stroke="#55636B"/>
</g>
<g filter="url(#filter2_d_2_6)">
<path d="M95.8031 206.079C97.3476 207.191 99.2189 207.993 101.417 208.486C103.657 208.97 105.967 208.96 108.346 208.455C110.766 207.941 112.7 206.876 114.145 205.261C115.632 203.637 116.137 201.698 115.658 199.444C115.171 197.148 114.039 195.513 112.262 194.538C110.526 193.555 108.523 192.955 106.253 192.739C104.024 192.514 101.766 192.252 99.478 191.952C97.2317 191.644 95.1756 190.794 93.3099 189.401C91.477 187.958 90.2594 185.818 89.657 182.98C88.8331 179.098 89.4651 175.911 91.5529 173.418C93.6825 170.916 96.4585 169.302 99.8809 168.575C104.597 167.574 108.708 167.727 112.213 169.033L110.559 173.571C107.861 172.573 104.613 172.478 100.815 173.284C98.8116 173.709 97.1573 174.649 95.8523 176.104C94.5472 177.558 94.1294 179.392 94.599 181.604C95.1925 184.4 97.0665 186.14 100.221 186.822C101.597 187.141 103.085 187.37 104.685 187.51C106.327 187.642 107.965 187.861 109.601 188.168C111.278 188.466 112.836 188.921 114.274 189.531C117.57 190.882 119.661 193.644 120.547 197.817C121.424 201.949 120.748 205.342 118.52 207.996C116.325 210.599 113.203 212.331 109.155 213.19C103.77 214.333 98.6258 213.418 93.7206 210.447L95.8031 206.079ZM146.263 205.313C142.173 206.181 138.513 205.89 135.282 204.438C132.094 202.978 129.548 200.748 127.647 197.75C125.746 194.751 124.343 191.123 123.44 186.866C122.536 182.609 122.344 178.724 122.863 175.212C123.383 171.699 124.803 168.628 127.123 165.999C129.485 163.36 132.92 161.562 137.428 160.605C141.977 159.64 146.209 159.745 150.122 160.921L149.273 165.55C145.57 164.547 141.612 164.493 137.396 165.388C133.223 166.274 130.401 168.596 128.93 172.354C127.492 176.061 127.336 180.565 128.461 185.866C129.578 191.125 131.545 195.156 134.365 197.959C137.185 200.763 140.66 201.726 144.792 200.849C148.966 199.963 152.213 198.511 154.532 196.492L151.715 183.22L142.136 185.253L141.179 180.745L155.516 177.702L159.808 197.924C155.828 201.778 151.313 204.241 146.263 205.313ZM184.668 181.721L165.385 185.814L164.429 181.306L183.711 177.213L184.668 181.721ZM197.746 193.339L196.789 188.831L204.865 187.117L197.521 152.823L202.529 151.759L209.811 186.067L216.823 184.579L217.78 189.086L197.746 193.339ZM190.538 162.156L188.481 158.013L197.521 152.823L198.584 157.831L190.538 162.156ZM227.538 182.174C224.353 178.881 222.118 174.208 220.833 168.156C219.549 162.104 219.697 156.948 221.279 152.687C222.852 148.384 226.038 145.723 230.838 144.704C235.638 143.685 239.651 144.818 242.878 148.102C246.105 151.386 248.356 156.033 249.632 162.043C250.907 168.054 250.738 173.215 249.123 177.526C247.509 181.838 244.302 184.504 239.502 185.522C234.702 186.541 230.714 185.425 227.538 182.174ZM225.614 155.234C224.69 158.483 224.724 162.445 225.717 167.12C226.709 171.794 228.292 175.449 230.465 178.085C232.671 180.67 235.36 181.626 238.532 180.952C241.704 180.279 243.768 178.292 244.725 174.992C245.724 171.684 245.732 167.713 244.749 163.08C243.765 158.447 242.145 154.822 239.888 152.204C237.673 149.577 234.98 148.601 231.808 149.274C228.636 149.947 226.571 151.934 225.614 155.234ZM282.627 130.832L306 170.361L300.804 171.464L294.014 159.82L277.862 163.248L276.388 176.646L271.192 177.749L276.492 132.135L282.627 130.832ZM280.729 136.993L278.345 158.435L291.555 155.631L280.729 136.993ZM71.7594 295.729L63.68 257.665L51.785 260.19L50.8282 255.682L79.6267 249.57L80.5834 254.077L68.6884 256.602L76.7679 294.666L71.7594 295.729ZM94.5932 290.882L85.557 248.311L90.5655 247.248L99.6017 289.819L94.5932 290.882ZM110.105 287.59L101.068 245.018L124.232 240.102L125.189 244.609L107.034 248.463L110.117 262.987L124.954 259.838L125.911 264.346L111.073 267.495L114.156 282.019L133.564 277.9L134.521 282.408L110.105 287.59ZM149.343 279.261L141.264 241.197L129.369 243.722L128.412 239.215L157.211 233.102L158.167 237.609L146.272 240.134L154.352 278.198L149.343 279.261ZM173.015 268.806C169.175 265.303 166.555 260.255 165.155 253.66C163.755 247.066 164.098 241.388 166.185 236.627C168.313 231.858 172.361 228.839 178.329 227.572C182.378 226.713 185.996 227.014 189.185 228.474C192.416 229.926 194.981 232.151 196.883 235.149C198.784 238.148 200.187 241.776 201.09 246.033C201.994 250.29 202.186 254.175 201.667 257.687C201.147 261.199 199.707 264.275 197.344 266.914C195.024 269.543 191.839 271.288 187.791 272.147C181.822 273.414 176.897 272.3 173.015 268.806ZM170.645 239.148C169.208 242.855 169.047 247.338 170.163 252.597C171.28 257.856 173.252 261.908 176.08 264.754C178.942 267.548 182.522 268.49 186.821 267.577C191.161 266.656 194.067 264.316 195.537 260.558C197.008 256.8 197.189 252.313 196.082 247.096C194.975 241.879 192.986 237.852 190.116 235.015C187.245 232.179 183.64 231.221 179.299 232.143C175 233.055 172.116 235.39 170.645 239.148ZM204.888 222.982L224.963 257.453L229.304 217.799L234.5 216.696L229.2 262.311L223.065 263.613L199.692 224.085L204.888 222.982ZM249.15 258.076L240.114 215.505L245.122 214.442L254.158 257.013L249.15 258.076ZM262.729 246.296C264.273 247.408 266.145 248.21 268.343 248.703C270.583 249.187 272.892 249.177 275.271 248.672C277.692 248.158 279.625 247.093 281.071 245.478C282.558 243.854 283.062 241.915 282.584 239.661C282.097 237.366 280.964 235.73 279.187 234.755C277.452 233.772 275.449 233.172 273.179 232.956C270.95 232.731 268.692 232.469 266.404 232.169C264.157 231.861 262.101 231.011 260.236 229.618C258.403 228.176 257.185 226.035 256.583 223.197C255.759 219.315 256.391 216.128 258.479 213.635C260.608 211.133 263.384 209.519 266.807 208.792C271.523 207.791 275.634 207.944 279.138 209.25L277.485 213.788C274.787 212.79 271.539 212.695 267.741 213.501C265.737 213.926 264.083 214.866 262.778 216.321C261.473 217.775 261.055 219.609 261.525 221.821C262.118 224.617 263.992 226.357 267.147 227.039C268.523 227.358 270.011 227.587 271.611 227.727C273.253 227.859 274.891 228.078 276.527 228.385C278.204 228.683 279.761 229.138 281.2 229.748C284.496 231.099 286.587 233.861 287.473 238.035C288.35 242.166 287.674 245.559 285.446 248.213C283.251 250.816 280.129 252.548 276.08 253.407C270.696 254.55 265.552 253.635 260.646 250.664L262.729 246.296ZM303.189 202.117L326.562 241.645L321.366 242.748L314.576 231.104L298.424 234.532L296.949 247.931L291.753 249.033L297.054 203.419L303.189 202.117ZM301.291 208.277L298.907 229.719L312.117 226.915L301.291 208.277ZM335.936 239.655L327.857 201.591L315.962 204.116L315.005 199.608L343.804 193.496L344.76 198.003L332.865 200.528L340.945 238.592L335.936 239.655ZM357.13 223.38L350.125 193.462L355.509 192.32L361.261 222.503L357.13 223.38ZM359.007 234.693C358.281 234.149 357.812 233.376 357.599 232.375C357.387 231.373 357.506 230.497 357.958 229.747C358.4 228.955 359.164 228.444 360.249 228.214C361.376 227.975 362.303 228.127 363.029 228.671C363.787 229.164 364.273 229.911 364.486 230.913C364.699 231.915 364.563 232.816 364.078 233.616C363.627 234.366 362.838 234.861 361.711 235.1C360.626 235.331 359.725 235.195 359.007 234.693Z" fill="#BCDDEE"/>
<path d="M95.8031 206.079L97.5555 203.644L94.6408 201.546L93.0952 204.788L95.8031 206.079ZM101.417 208.486L100.761 211.413L100.772 211.416L100.783 211.418L101.417 208.486ZM114.145 205.261L111.932 203.235L111.921 203.248L111.909 203.26L114.145 205.261ZM112.262 194.538L110.782 197.148L110.8 197.158L110.819 197.169L112.262 194.538ZM106.253 192.739L105.952 195.724L105.96 195.724L105.969 195.725L106.253 192.739ZM99.478 191.952L99.07 194.924L99.0794 194.926L99.0887 194.927L99.478 191.952ZM93.3099 189.401L91.4542 191.759L91.4847 191.783L91.5157 191.806L93.3099 189.401ZM91.5529 173.418L89.2684 171.473L89.2606 171.483L89.2529 171.492L91.5529 173.418ZM112.213 169.033L115.031 170.06L116.051 167.261L113.26 166.221L112.213 169.033ZM110.559 173.571L109.518 176.385L112.346 177.43L113.378 174.598L110.559 173.571ZM100.221 186.822L100.898 183.899L100.877 183.895L100.855 183.89L100.221 186.822ZM104.685 187.51L104.423 190.499L104.435 190.5L104.446 190.501L104.685 187.51ZM109.601 188.168L109.047 191.116L109.061 191.119L109.076 191.122L109.601 188.168ZM114.274 189.531L113.101 192.293L113.119 192.3L113.137 192.307L114.274 189.531ZM118.52 207.996L120.814 209.93L120.818 209.925L118.52 207.996ZM93.7206 210.447L91.0126 209.156L89.8442 211.606L92.1662 213.013L93.7206 210.447ZM94.0507 208.514C95.9781 209.901 98.2391 210.848 100.761 211.413L102.074 205.559C100.199 205.138 98.717 204.48 97.5555 203.644L94.0507 208.514ZM100.783 211.418C103.463 211.997 106.201 211.977 108.969 211.389L107.723 205.52C105.732 205.943 103.852 205.943 102.051 205.554L100.783 211.418ZM108.969 211.389C111.921 210.763 114.452 209.417 116.381 207.261L111.909 203.26C110.947 204.336 109.612 205.119 107.723 205.52L108.969 211.389ZM116.358 207.287C118.534 204.91 119.261 201.971 118.593 198.821L112.724 200.067C113.012 201.425 112.73 202.363 111.932 203.235L116.358 207.287ZM118.593 198.821C117.956 195.821 116.372 193.371 113.704 191.908L110.819 197.169C111.706 197.655 112.386 198.476 112.724 200.067L118.593 198.821ZM113.741 191.928C111.589 190.709 109.168 190.002 106.537 189.752L105.969 195.725C107.879 195.907 109.463 196.4 110.782 197.148L113.741 191.928ZM106.554 189.754C104.356 189.532 102.127 189.273 99.8673 188.978L99.0887 194.927C101.405 195.23 103.693 195.496 105.952 195.724L106.554 189.754ZM99.8859 188.98C98.1561 188.743 96.5745 188.094 95.1041 186.997L91.5157 191.806C93.7768 193.493 96.3072 194.545 99.07 194.924L99.8859 188.98ZM95.1656 187.044C94.0084 186.133 93.0849 184.681 92.5916 182.357L86.7224 183.603C87.4339 186.955 88.9457 189.784 91.4542 191.759L95.1656 187.044ZM92.5916 182.357C91.9124 179.157 92.4881 176.974 93.8529 175.344L89.2529 171.492C86.442 174.848 85.7538 179.04 86.7224 183.603L92.5916 182.357ZM93.8374 175.362C95.5088 173.399 97.6845 172.108 100.504 171.51L99.258 165.64C95.2325 166.495 91.8561 168.433 89.2684 171.473L93.8374 175.362ZM100.504 171.51C104.822 170.593 108.328 170.787 111.165 171.844L113.26 166.221C109.087 164.666 104.373 164.555 99.258 165.64L100.504 171.51ZM109.394 168.005L107.74 172.544L113.378 174.598L115.031 170.06L109.394 168.005ZM111.599 170.757C108.214 169.505 104.356 169.465 100.192 170.349L101.438 176.218C104.87 175.49 107.508 175.641 109.518 176.385L111.599 170.757ZM100.192 170.349C97.5986 170.9 95.37 172.149 93.6192 174.1L98.0853 178.107C98.9447 177.149 100.024 176.518 101.438 176.218L100.192 170.349ZM93.6192 174.1C91.5675 176.387 91.0316 179.246 91.6643 182.227L97.5336 180.981C97.2273 179.538 97.5269 178.73 98.0853 178.107L93.6192 174.1ZM91.6643 182.227C92.0737 184.155 92.9658 185.865 94.4087 187.204C95.8312 188.525 97.6194 189.329 99.5865 189.754L100.855 183.89C99.6681 183.633 98.9421 183.226 98.4906 182.807C98.0595 182.407 97.7178 181.849 97.5336 180.981L91.6643 182.227ZM99.5444 189.745C101.074 190.099 102.702 190.348 104.423 190.499L104.947 184.522C103.468 184.392 102.12 184.182 100.898 183.899L99.5444 189.745ZM104.446 190.501C105.981 190.623 107.515 190.829 109.047 191.116L110.155 185.219C108.416 184.893 106.673 184.66 104.924 184.52L104.446 190.501ZM109.076 191.122C110.55 191.384 111.889 191.778 113.101 192.293L115.446 186.77C113.783 186.064 112.006 185.549 110.126 185.214L109.076 191.122ZM113.137 192.307C115.324 193.204 116.886 195.018 117.612 198.44L123.482 197.195C122.436 192.27 119.816 188.56 115.411 186.755L113.137 192.307ZM117.612 198.44C118.344 201.889 117.726 204.276 116.223 206.067L120.818 209.925C123.771 206.408 124.504 202.01 123.482 197.195L117.612 198.44ZM116.227 206.062C114.548 208.053 112.072 209.504 108.532 210.255L109.777 216.125C114.334 215.157 118.102 213.146 120.814 209.93L116.227 206.062ZM108.532 210.255C103.928 211.233 99.558 210.475 95.275 207.881L92.1662 213.013C97.6936 216.361 103.613 217.433 109.777 216.125L108.532 210.255ZM96.4285 211.738L98.511 207.37L93.0952 204.788L91.0126 209.156L96.4285 211.738ZM135.282 204.438L134.033 207.166L134.043 207.17L134.053 207.175L135.282 204.438ZM127.647 197.75L130.181 196.143L130.181 196.143L127.647 197.75ZM122.863 175.212L125.831 175.651L125.831 175.651L122.863 175.212ZM127.123 165.999L124.888 163.998L124.881 164.006L124.874 164.014L127.123 165.999ZM150.122 160.921L153.073 161.462L153.557 158.82L150.985 158.047L150.122 160.921ZM149.273 165.55L148.489 168.446L151.635 169.298L152.223 166.091L149.273 165.55ZM128.93 172.354L126.136 171.261L126.133 171.269L128.93 172.354ZM134.365 197.959L132.25 200.087L132.25 200.087L134.365 197.959ZM154.532 196.492L156.502 198.755L157.833 197.596L157.467 195.869L154.532 196.492ZM151.715 183.22L154.649 182.597L154.026 179.662L151.092 180.285L151.715 183.22ZM142.136 185.253L139.202 185.876L139.824 188.81L142.759 188.188L142.136 185.253ZM141.179 180.745L140.556 177.811L137.622 178.434L138.245 181.368L141.179 180.745ZM155.516 177.702L158.451 177.079L157.828 174.145L154.893 174.768L155.516 177.702ZM159.808 197.924L161.895 200.079L163.087 198.924L162.743 197.301L159.808 197.924ZM145.64 202.379C142.057 203.139 139.062 202.848 136.512 201.702L134.053 207.175C137.963 208.932 142.289 209.224 146.886 208.248L145.64 202.379ZM136.531 201.711C133.877 200.495 131.775 198.658 130.181 196.143L125.114 199.356C127.322 202.838 130.31 205.461 134.033 207.166L136.531 201.711ZM130.181 196.143C128.508 193.505 127.22 190.227 126.374 186.243L120.505 187.489C121.467 192.019 122.983 195.997 125.114 199.356L130.181 196.143ZM126.374 186.243C125.529 182.259 125.374 178.74 125.831 175.651L119.896 174.773C119.314 178.708 119.543 182.959 120.505 187.489L126.374 186.243ZM125.831 175.651C126.267 172.705 127.441 170.173 129.373 167.983L124.874 164.014C122.164 167.084 120.499 170.694 119.896 174.773L125.831 175.651ZM129.358 168C131.184 165.96 133.979 164.404 138.051 163.54L136.805 157.671C131.862 158.72 127.787 160.759 124.888 163.998L129.358 168ZM138.051 163.54C142.176 162.664 145.891 162.782 149.259 163.794L150.985 158.047C146.526 156.708 141.778 156.615 136.805 157.671L138.051 163.54ZM147.171 160.379L146.322 165.008L152.223 166.091L153.073 161.462L147.171 160.379ZM150.057 162.654C145.841 161.513 141.396 161.472 136.773 162.454L138.019 168.323C141.827 167.515 145.3 167.582 148.489 168.446L150.057 162.654ZM136.773 162.454C131.68 163.535 127.999 166.5 126.136 171.261L131.724 173.447C132.802 170.692 134.765 169.014 138.019 168.323L136.773 162.454ZM126.133 171.269C124.421 175.684 124.323 180.818 125.527 186.489L131.396 185.243C130.349 180.312 130.564 176.438 131.727 173.439L126.133 171.269ZM125.527 186.489C126.723 192.122 128.895 196.751 132.25 200.087L136.48 195.832C134.196 193.561 132.433 190.127 131.396 185.243L125.527 186.489ZM132.25 200.087C135.839 203.656 140.367 204.856 145.415 203.784L144.169 197.915C140.954 198.597 138.53 197.87 136.48 195.832L132.25 200.087ZM145.415 203.784C149.904 202.831 153.677 201.213 156.502 198.755L152.562 194.229C150.748 195.809 148.028 197.096 144.169 197.915L145.415 203.784ZM157.467 195.869L154.649 182.597L148.78 183.843L151.597 197.115L157.467 195.869ZM151.092 180.285L141.513 182.318L142.759 188.188L152.338 186.154L151.092 180.285ZM145.071 184.63L144.114 180.123L138.245 181.368L139.202 185.876L145.071 184.63ZM141.802 183.68L156.139 180.637L154.893 174.768L140.556 177.811L141.802 183.68ZM152.581 178.325L156.874 198.547L162.743 197.301L158.451 177.079L152.581 178.325ZM157.721 195.769C154.116 199.261 150.098 201.432 145.64 202.379L146.886 208.248C152.529 207.05 157.541 204.296 161.895 200.079L157.721 195.769ZM184.668 181.721L185.291 184.656L188.225 184.033L187.602 181.098L184.668 181.721ZM165.385 185.814L162.451 186.437L163.074 189.371L166.008 188.749L165.385 185.814ZM164.429 181.306L163.806 178.372L160.871 178.995L161.494 181.929L164.429 181.306ZM183.711 177.213L186.646 176.591L186.023 173.656L183.088 174.279L183.711 177.213ZM184.045 178.786L164.762 182.879L166.008 188.749L185.291 184.656L184.045 178.786ZM168.32 185.191L167.363 180.683L161.494 181.929L162.451 186.437L168.32 185.191ZM165.051 184.241L184.334 180.148L183.088 174.279L163.806 178.372L165.051 184.241ZM180.776 177.836L181.733 182.344L187.602 181.098L186.646 176.591L180.776 177.836ZM197.746 193.339L194.811 193.962L195.434 196.896L198.369 196.273L197.746 193.339ZM196.789 188.831L196.166 185.897L193.232 186.519L193.855 189.454L196.789 188.831ZM204.865 187.117L205.488 190.052L208.428 189.428L207.799 186.489L204.865 187.117ZM197.521 152.823L196.898 149.888L193.958 150.512L194.587 153.451L197.521 152.823ZM202.529 151.759L205.464 151.137L204.841 148.202L201.906 148.825L202.529 151.759ZM209.811 186.067L206.876 186.69L207.499 189.625L210.434 189.002L209.811 186.067ZM216.823 184.579L219.757 183.956L219.135 181.021L216.2 181.644L216.823 184.579ZM217.78 189.086L218.403 192.021L221.337 191.398L220.714 188.464L217.78 189.086ZM190.538 162.156L187.851 163.49L189.229 166.265L191.959 164.798L190.538 162.156ZM188.481 158.013L186.987 155.411L184.538 156.817L185.794 159.347L188.481 158.013ZM197.521 152.823L200.455 152.2L199.6 148.169L196.027 150.221L197.521 152.823ZM198.584 157.831L200.004 160.473L201.985 159.408L201.518 157.208L198.584 157.831ZM200.681 192.716L199.724 188.208L193.855 189.454L194.811 193.962L200.681 192.716ZM197.412 191.766L205.488 190.052L204.242 184.182L196.166 185.897L197.412 191.766ZM207.799 186.489L200.454 152.194L194.587 153.451L201.932 187.745L207.799 186.489ZM198.143 155.757L203.152 154.694L201.906 148.825L196.898 149.888L198.143 155.757ZM199.594 152.382L206.876 186.69L212.746 185.444L205.464 151.137L199.594 152.382ZM210.434 189.002L217.446 187.513L216.2 181.644L209.188 183.133L210.434 189.002ZM213.888 185.202L214.845 189.709L220.714 188.464L219.757 183.956L213.888 185.202ZM217.157 186.152L197.123 190.404L198.369 196.273L218.403 192.021L217.157 186.152ZM193.225 160.822L191.168 156.678L185.794 159.347L187.851 163.49L193.225 160.822ZM189.975 160.614L199.014 155.424L196.027 150.221L186.987 155.411L189.975 160.614ZM194.586 153.445L195.649 158.454L201.518 157.208L200.455 152.2L194.586 153.445ZM197.163 155.189L189.118 159.513L191.959 164.798L200.004 160.473L197.163 155.189ZM227.538 182.174L225.382 184.259L225.387 184.265L225.392 184.27L227.538 182.174ZM221.279 152.687L224.092 153.73L224.094 153.723L224.097 153.716L221.279 152.687ZM242.878 148.102L240.738 150.205L240.738 150.205L242.878 148.102ZM249.123 177.526L251.933 178.578L249.123 177.526ZM225.614 155.234L222.733 154.398L222.731 154.406L222.729 154.413L225.614 155.234ZM230.465 178.085L228.15 179.993L228.166 180.013L228.183 180.032L230.465 178.085ZM244.725 174.992L241.853 174.126L241.849 174.141L241.844 174.157L244.725 174.992ZM239.888 152.204L237.595 154.138L237.606 154.151L237.616 154.163L239.888 152.204ZM229.694 180.088C227.015 177.318 224.975 173.221 223.768 167.533L217.899 168.779C219.261 175.195 221.69 180.443 225.382 184.259L229.694 180.088ZM223.768 167.533C222.56 161.843 222.767 157.299 224.092 153.73L218.467 151.643C216.628 156.597 216.537 162.366 217.899 168.779L223.768 167.533ZM224.097 153.716C225.286 150.464 227.586 148.461 231.461 147.638L230.215 141.769C224.491 142.984 220.418 146.303 218.461 151.657L224.097 153.716ZM231.461 147.638C235.337 146.816 238.284 147.707 240.738 150.205L245.018 145.999C241.018 141.928 235.938 140.554 230.215 141.769L231.461 147.638ZM240.738 150.205C243.451 152.966 245.501 157.033 246.697 162.666L252.566 161.421C251.211 155.034 248.758 149.806 245.018 145.999L240.738 150.205ZM246.697 162.666C247.893 168.3 247.672 172.849 246.314 176.474L251.933 178.578C253.804 173.58 253.922 167.807 252.566 161.421L246.697 162.666ZM246.314 176.474C245.086 179.753 242.755 181.765 238.879 182.588L240.125 188.457C245.848 187.242 249.932 183.924 251.933 178.578L246.314 176.474ZM238.879 182.588C234.989 183.413 232.076 182.526 229.684 180.077L225.392 184.27C229.353 188.324 234.415 189.669 240.125 188.457L238.879 182.588ZM222.729 154.413C221.627 158.287 221.728 162.776 222.782 167.743L228.651 166.497C227.721 162.114 227.753 158.68 228.5 156.055L222.729 154.413ZM222.782 167.743C223.837 172.712 225.572 176.867 228.15 179.993L232.779 176.176C231.011 174.032 229.581 170.877 228.651 166.497L222.782 167.743ZM228.183 180.032C229.562 181.648 231.205 182.882 233.131 183.567C235.066 184.255 237.102 184.323 239.155 183.887L237.909 178.018C236.79 178.255 235.895 178.182 235.141 177.914C234.379 177.643 233.574 177.106 232.747 176.137L228.183 180.032ZM239.155 183.887C241.215 183.45 243.052 182.551 244.539 181.119C246.019 179.695 247.011 177.882 247.607 175.828L241.844 174.157C241.483 175.403 240.964 176.233 240.379 176.796C239.802 177.351 239.021 177.782 237.909 178.018L239.155 183.887ZM247.597 175.859C248.786 171.921 248.734 167.409 247.683 162.457L241.814 163.703C242.729 168.016 242.662 171.446 241.853 174.126L247.597 175.859ZM247.683 162.457C246.632 157.505 244.847 153.361 242.161 150.245L237.616 154.163C239.444 156.283 240.898 159.39 241.814 163.703L247.683 162.457ZM242.182 150.27C240.803 148.635 239.16 147.381 237.23 146.681C235.289 145.978 233.245 145.902 231.185 146.339L232.431 152.209C233.543 151.973 234.432 152.049 235.184 152.322C235.947 152.599 236.759 153.146 237.595 154.138L242.182 150.27ZM231.185 146.339C229.125 146.777 227.288 147.676 225.8 149.107C224.321 150.531 223.329 152.344 222.733 154.398L228.496 156.069C228.857 154.823 229.376 153.993 229.961 153.431C230.538 152.875 231.319 152.445 232.431 152.209L231.185 146.339ZM282.627 130.832L285.21 129.305L284.113 127.45L282.004 127.898L282.627 130.832ZM306 170.361L306.623 173.295L310.708 172.428L308.583 168.834L306 170.361ZM300.804 171.464L298.212 172.975L299.305 174.849L301.427 174.398L300.804 171.464ZM294.014 159.82L296.606 158.309L295.513 156.435L293.391 156.885L294.014 159.82ZM277.862 163.248L277.239 160.314L275.117 160.764L274.88 162.92L277.862 163.248ZM276.388 176.646L277.011 179.581L279.133 179.131L279.37 176.974L276.388 176.646ZM271.192 177.749L268.212 177.403L267.73 181.551L271.815 180.684L271.192 177.749ZM276.492 132.135L275.869 129.2L273.761 129.647L273.512 131.788L276.492 132.135ZM280.729 136.993L283.323 135.486L278.753 127.617L277.747 136.661L280.729 136.993ZM278.345 158.435L275.364 158.103L274.905 162.232L278.968 161.37L278.345 158.435ZM291.555 155.631L292.178 158.566L296.229 157.706L294.149 154.124L291.555 155.631ZM280.045 132.359L303.418 171.888L308.583 168.834L285.21 129.305L280.045 132.359ZM305.377 167.426L300.181 168.529L301.427 174.398L306.623 173.295L305.377 167.426ZM303.396 169.953L296.606 158.309L291.423 161.331L298.212 172.975L303.396 169.953ZM293.391 156.885L277.239 160.314L278.485 166.183L294.637 162.754L293.391 156.885ZM274.88 162.92L273.406 176.318L279.37 176.974L280.844 163.576L274.88 162.92ZM275.765 173.712L270.569 174.815L271.815 180.684L277.011 179.581L275.765 173.712ZM274.172 178.095L279.472 132.481L273.512 131.788L268.212 177.403L274.172 178.095ZM277.115 135.069L283.25 133.767L282.004 127.898L275.869 129.2L277.115 135.069ZM277.747 136.661L275.364 158.103L281.327 158.766L283.711 137.324L277.747 136.661ZM278.968 161.37L292.178 158.566L290.932 152.696L277.722 155.5L278.968 161.37ZM294.149 154.124L283.323 135.486L278.135 138.499L288.961 157.138L294.149 154.124ZM71.7594 295.729L68.8248 296.352L69.4477 299.287L72.3823 298.664L71.7594 295.729ZM63.68 257.665L66.6146 257.042L65.9917 254.108L63.0571 254.731L63.68 257.665ZM51.785 260.19L48.8504 260.813L49.4733 263.748L52.4079 263.125L51.785 260.19ZM50.8282 255.682L50.2053 252.748L47.2707 253.371L47.8936 256.305L50.8282 255.682ZM79.6267 249.57L82.5613 248.947L81.9384 246.012L79.0038 246.635L79.6267 249.57ZM80.5834 254.077L81.2063 257.012L84.141 256.389L83.5181 253.454L80.5834 254.077ZM68.6884 256.602L68.0655 253.667L65.1309 254.29L65.7538 257.225L68.6884 256.602ZM76.7679 294.666L77.3908 297.601L80.3254 296.978L79.7025 294.043L76.7679 294.666ZM74.6941 295.106L66.6146 257.042L60.7454 258.288L68.8248 296.352L74.6941 295.106ZM63.0571 254.731L51.1621 257.255L52.4079 263.125L64.3029 260.6L63.0571 254.731ZM54.7196 259.567L53.7629 255.06L47.8936 256.305L48.8504 260.813L54.7196 259.567ZM51.4511 258.617L80.2496 252.504L79.0038 246.635L50.2053 252.748L51.4511 258.617ZM76.692 250.193L77.6488 254.7L83.5181 253.454L82.5613 248.947L76.692 250.193ZM79.9605 251.143L68.0655 253.667L69.3113 259.537L81.2063 257.012L79.9605 251.143ZM65.7538 257.225L73.8332 295.289L79.7025 294.043L71.6231 255.979L65.7538 257.225ZM76.145 291.731L71.1365 292.795L72.3823 298.664L77.3908 297.601L76.145 291.731ZM94.5932 290.882L91.6586 291.505L92.2815 294.44L95.2161 293.817L94.5932 290.882ZM85.557 248.311L84.9341 245.376L81.9995 245.999L82.6224 248.934L85.557 248.311ZM90.5655 247.248L93.5001 246.625L92.8772 243.69L89.9426 244.313L90.5655 247.248ZM99.6017 289.819L100.225 292.754L103.159 292.131L102.536 289.197L99.6017 289.819ZM97.5279 290.26L88.4917 247.688L82.6224 248.934L91.6586 291.505L97.5279 290.26ZM86.1799 251.246L91.1884 250.182L89.9426 244.313L84.9341 245.376L86.1799 251.246ZM87.6308 247.871L96.667 290.442L102.536 289.197L93.5001 246.625L87.6308 247.871ZM98.9788 286.885L93.9703 287.948L95.2161 293.817L100.225 292.754L98.9788 286.885ZM110.105 287.59L107.17 288.213L107.793 291.148L110.728 290.525L110.105 287.59ZM101.068 245.018L100.446 242.084L97.5109 242.707L98.1338 245.641L101.068 245.018ZM124.232 240.102L127.167 239.479L126.544 236.544L123.609 237.167L124.232 240.102ZM125.189 244.609L125.812 247.544L128.747 246.921L128.124 243.986L125.189 244.609ZM107.034 248.463L106.411 245.528L103.476 246.151L104.099 249.086L107.034 248.463ZM110.117 262.987L107.182 263.61L107.805 266.545L110.739 265.922L110.117 262.987ZM124.954 259.838L127.889 259.215L127.266 256.28L124.331 256.903L124.954 259.838ZM125.911 264.346L126.534 267.28L129.468 266.657L128.845 263.723L125.911 264.346ZM111.073 267.495L110.45 264.56L107.516 265.183L108.139 268.118L111.073 267.495ZM114.156 282.019L111.222 282.642L111.845 285.577L114.779 284.954L114.156 282.019ZM133.564 277.9L136.499 277.277L135.876 274.342L132.941 274.965L133.564 277.9ZM134.521 282.408L135.144 285.342L138.078 284.719L137.455 281.785L134.521 282.408ZM113.039 286.967L104.003 244.396L98.1338 245.641L107.17 288.213L113.039 286.967ZM101.691 247.953L124.855 243.036L123.609 237.167L100.446 242.084L101.691 247.953ZM121.298 240.725L122.255 245.232L128.124 243.986L127.167 239.479L121.298 240.725ZM124.566 241.675L106.411 245.528L107.657 251.398L125.812 247.544L124.566 241.675ZM104.099 249.086L107.182 263.61L113.051 262.364L109.968 247.84L104.099 249.086ZM110.739 265.922L125.577 262.773L124.331 256.903L109.494 260.053L110.739 265.922ZM122.019 260.461L122.976 264.968L128.845 263.723L127.889 259.215L122.019 260.461ZM125.288 261.411L110.45 264.56L111.696 270.43L126.534 267.28L125.288 261.411ZM108.139 268.118L111.222 282.642L117.091 281.396L114.008 266.872L108.139 268.118ZM114.779 284.954L134.187 280.835L132.941 274.965L113.533 279.085L114.779 284.954ZM130.629 278.523L131.586 283.03L137.455 281.785L136.499 277.277L130.629 278.523ZM133.898 279.473L109.482 284.655L110.728 290.525L135.144 285.342L133.898 279.473ZM149.343 279.261L146.409 279.884L147.032 282.819L149.966 282.196L149.343 279.261ZM141.264 241.197L144.199 240.574L143.576 237.64L140.641 238.263L141.264 241.197ZM129.369 243.722L126.434 244.345L127.057 247.28L129.992 246.657L129.369 243.722ZM128.412 239.215L127.789 236.28L124.855 236.903L125.478 239.837L128.412 239.215ZM157.211 233.102L160.145 232.479L159.522 229.544L156.588 230.167L157.211 233.102ZM158.167 237.609L158.79 240.544L161.725 239.921L161.102 236.986L158.167 237.609ZM146.272 240.134L145.65 237.2L142.715 237.822L143.338 240.757L146.272 240.134ZM154.352 278.198L154.975 281.133L157.909 280.51L157.287 277.575L154.352 278.198ZM152.278 278.638L144.199 240.574L138.329 241.82L146.409 279.884L152.278 278.638ZM140.641 238.263L128.746 240.787L129.992 246.657L141.887 244.132L140.641 238.263ZM132.304 243.099L131.347 238.592L125.478 239.837L126.434 244.345L132.304 243.099ZM129.035 242.149L157.834 236.036L156.588 230.167L127.789 236.28L129.035 242.149ZM154.276 233.725L155.233 238.232L161.102 236.986L160.145 232.479L154.276 233.725ZM157.545 234.675L145.65 237.2L146.895 243.069L158.79 240.544L157.545 234.675ZM143.338 240.757L151.417 278.821L157.287 277.575L149.207 239.511L143.338 240.757ZM153.729 275.264L148.721 276.327L149.966 282.196L154.975 281.133L153.729 275.264ZM173.015 268.806L170.993 271.023L171.001 271.03L171.008 271.036L173.015 268.806ZM166.185 236.627L163.445 235.405L163.441 235.414L163.437 235.423L166.185 236.627ZM189.185 228.474L187.936 231.202L187.946 231.206L187.956 231.21L189.185 228.474ZM196.883 235.149L194.349 236.756L196.883 235.149ZM201.667 257.687L198.699 257.248L198.699 257.248L201.667 257.687ZM197.344 266.914L195.109 264.913L195.102 264.921L195.095 264.929L197.344 266.914ZM170.645 239.148L167.852 238.055L167.848 238.063L170.645 239.148ZM176.08 264.754L173.953 266.869L173.968 266.884L173.984 266.9L176.08 264.754ZM195.537 260.558L192.744 259.465L192.744 259.465L195.537 260.558ZM190.116 235.015L188.007 237.149L188.007 237.149L190.116 235.015ZM175.037 266.59C171.78 263.62 169.398 259.2 168.09 253.037L162.22 254.283C163.712 261.31 166.569 266.987 170.993 271.023L175.037 266.59ZM168.09 253.037C166.782 246.875 167.164 241.868 168.933 237.831L163.437 235.423C161.033 240.908 160.729 247.257 162.22 254.283L168.09 253.037ZM168.924 237.85C170.592 234.112 173.743 231.613 178.952 230.507L177.706 224.638C170.979 226.066 166.034 229.603 163.445 235.405L168.924 237.85ZM178.952 230.507C182.488 229.757 185.433 230.055 187.936 231.202L190.434 225.746C186.56 223.972 182.268 223.67 177.706 224.638L178.952 230.507ZM187.956 231.21C190.649 232.421 192.762 234.252 194.349 236.756L199.416 233.543C197.201 230.049 194.183 227.431 190.415 225.738L187.956 231.21ZM194.349 236.756C196.022 239.393 197.31 242.671 198.156 246.656L204.025 245.41C203.063 240.88 201.547 236.902 199.416 233.543L194.349 236.756ZM198.156 246.656C199.001 250.64 199.156 254.158 198.699 257.248L204.634 258.126C205.216 254.191 204.987 249.94 204.025 245.41L198.156 246.656ZM198.699 257.248C198.265 260.181 197.078 262.713 195.109 264.913L199.579 268.915C202.335 265.837 204.029 262.218 204.634 258.126L198.699 257.248ZM195.095 264.929C193.273 266.993 190.703 268.462 187.168 269.213L188.414 275.082C192.975 274.114 196.774 272.094 199.594 268.899L195.095 264.929ZM187.168 269.213C181.958 270.318 178.064 269.315 175.022 266.577L171.008 271.036C175.73 275.286 181.686 276.51 188.414 275.082L187.168 269.213ZM167.848 238.063C166.138 242.475 166.033 247.586 167.229 253.22L173.098 251.974C172.061 247.09 172.278 243.236 173.442 240.233L167.848 238.063ZM167.229 253.22C168.425 258.856 170.601 263.496 173.953 266.869L178.208 262.639C175.903 260.32 174.134 256.856 173.098 251.974L167.229 253.22ZM173.984 266.9C177.643 270.473 182.278 271.608 187.444 270.512L186.198 264.642C182.766 265.371 180.241 264.623 178.177 262.607L173.984 266.9ZM187.444 270.512C192.655 269.406 196.451 266.455 198.331 261.651L192.744 259.465C191.682 262.177 189.667 263.906 186.198 264.642L187.444 270.512ZM198.331 261.651C200.074 257.198 200.207 252.082 199.017 246.473L193.147 247.719C194.171 252.543 193.942 256.403 192.744 259.465L198.331 261.651ZM199.017 246.473C197.826 240.863 195.626 236.243 192.224 232.882L188.007 237.149C190.345 239.46 192.123 242.894 193.147 247.719L199.017 246.473ZM192.224 232.882C188.556 229.256 183.888 228.102 178.676 229.208L179.922 235.077C183.392 234.341 185.935 235.102 188.007 237.149L192.224 232.882ZM178.676 229.208C173.495 230.308 169.727 233.262 167.852 238.055L173.439 240.241C174.505 237.518 176.506 235.802 179.922 235.077L178.676 229.208ZM204.888 222.982L207.48 221.472L206.388 219.597L204.265 220.047L204.888 222.982ZM224.963 257.453L222.37 258.963L226.954 266.833L227.945 257.779L224.963 257.453ZM229.304 217.799L228.681 214.865L226.558 215.315L226.322 217.473L229.304 217.799ZM234.5 216.696L237.48 217.043L237.962 212.895L233.877 213.762L234.5 216.696ZM229.2 262.311L229.823 265.246L231.931 264.798L232.18 262.657L229.2 262.311ZM223.065 263.613L220.482 265.14L221.579 266.995L223.687 266.548L223.065 263.613ZM199.692 224.085L199.069 221.15L194.984 222.017L197.109 225.612L199.692 224.085ZM202.296 224.492L222.37 258.963L227.555 255.943L207.48 221.472L202.296 224.492ZM227.945 257.779L232.286 218.126L226.322 217.473L221.981 257.126L227.945 257.779ZM229.927 220.734L235.123 219.631L233.877 213.762L228.681 214.865L229.927 220.734ZM231.52 216.35L226.22 261.965L232.18 262.657L237.48 217.043L231.52 216.35ZM228.577 259.376L222.442 260.679L223.687 266.548L229.823 265.246L228.577 259.376ZM225.647 262.086L202.274 222.558L197.109 225.612L220.482 265.14L225.647 262.086ZM200.315 227.019L205.511 225.916L204.265 220.047L199.069 221.15L200.315 227.019ZM249.15 258.076L246.215 258.699L246.838 261.634L249.773 261.011L249.15 258.076ZM240.114 215.505L239.491 212.57L236.556 213.193L237.179 216.128L240.114 215.505ZM245.122 214.442L248.057 213.819L247.434 210.884L244.499 211.507L245.122 214.442ZM254.158 257.013L254.781 259.948L257.716 259.325L257.093 256.39L254.158 257.013ZM252.085 257.454L243.048 214.882L237.179 216.128L246.215 258.699L252.085 257.454ZM240.737 218.439L245.745 217.376L244.499 211.507L239.491 212.57L240.737 218.439ZM242.187 215.065L251.224 257.636L257.093 256.39L248.057 213.819L242.187 215.065ZM253.535 254.079L248.527 255.142L249.773 261.011L254.781 259.948L253.535 254.079ZM262.729 246.296L264.481 243.861L261.567 241.764L260.021 245.005L262.729 246.296ZM268.343 248.703L267.686 251.63L267.698 251.633L267.709 251.635L268.343 248.703ZM281.071 245.478L278.858 243.452L278.847 243.465L278.835 243.478L281.071 245.478ZM279.187 234.755L277.708 237.365L277.726 237.376L277.744 237.386L279.187 234.755ZM273.179 232.956L272.878 235.941L272.886 235.941L272.895 235.942L273.179 232.956ZM266.404 232.169L265.996 235.141L266.005 235.143L266.014 235.144L266.404 232.169ZM260.236 229.618L258.38 231.976L258.41 232L258.441 232.023L260.236 229.618ZM258.479 213.635L256.194 211.69L256.186 211.7L256.179 211.709L258.479 213.635ZM279.138 209.25L281.957 210.277L282.977 207.479L280.186 206.439L279.138 209.25ZM277.485 213.788L276.444 216.602L279.271 217.647L280.303 214.815L277.485 213.788ZM267.147 227.039L267.823 224.117L267.802 224.112L267.781 224.107L267.147 227.039ZM271.611 227.727L271.349 230.716L271.36 230.717L271.372 230.718L271.611 227.727ZM276.527 228.385L275.973 231.333L275.987 231.336L276.001 231.339L276.527 228.385ZM281.2 229.748L280.027 232.51L280.045 232.517L280.062 232.525L281.2 229.748ZM285.446 248.213L287.739 250.147L287.744 250.142L285.446 248.213ZM260.646 250.664L257.938 249.373L256.77 251.823L259.092 253.23L260.646 250.664ZM260.976 248.731C262.904 250.118 265.165 251.065 267.686 251.63L268.999 245.776C267.124 245.355 265.643 244.697 264.481 243.861L260.976 248.731ZM267.709 251.635C270.388 252.214 273.127 252.194 275.894 251.606L274.649 245.737C272.658 246.16 270.778 246.16 268.977 245.771L267.709 251.635ZM275.894 251.606C278.846 250.98 281.377 249.634 283.306 247.479L278.835 243.478C277.873 244.553 276.538 245.336 274.649 245.737L275.894 251.606ZM283.283 247.504C285.46 245.127 286.187 242.188 285.519 239.038L279.649 240.284C279.937 241.642 279.656 242.581 278.858 243.452L283.283 247.504ZM285.519 239.038C284.882 236.038 283.298 233.588 280.63 232.125L277.744 237.386C278.631 237.872 279.312 238.693 279.649 240.284L285.519 239.038ZM280.667 232.146C278.515 230.926 276.094 230.22 273.463 229.969L272.895 235.942C274.804 236.124 276.389 236.618 277.708 237.365L280.667 232.146ZM273.48 229.971C271.282 229.749 269.053 229.49 266.793 229.195L266.014 235.144C268.331 235.447 270.619 235.713 272.878 235.941L273.48 229.971ZM266.812 229.197C265.082 228.96 263.5 228.311 262.03 227.214L258.441 232.023C260.703 233.71 263.233 234.762 265.996 235.141L266.812 229.197ZM262.091 227.261C260.934 226.35 260.011 224.898 259.517 222.574L253.648 223.82C254.36 227.172 255.871 230.001 258.38 231.976L262.091 227.261ZM259.517 222.574C258.838 219.374 259.414 217.191 260.779 215.561L256.179 211.709C253.368 215.065 252.68 219.257 253.648 223.82L259.517 222.574ZM260.763 215.579C262.435 213.616 264.61 212.325 267.43 211.727L266.184 205.858C262.158 206.712 258.782 208.65 256.194 211.69L260.763 215.579ZM267.43 211.727C271.747 210.81 275.254 211.004 278.091 212.061L280.186 206.439C276.013 204.884 271.298 204.772 266.184 205.858L267.43 211.727ZM276.32 208.223L274.666 212.761L280.303 214.815L281.957 210.277L276.32 208.223ZM278.525 210.974C275.14 209.722 271.282 209.682 267.118 210.566L268.364 216.436C271.795 215.707 274.434 215.858 276.444 216.602L278.525 210.974ZM267.118 210.566C264.524 211.117 262.296 212.366 260.545 214.317L265.011 218.324C265.87 217.366 266.95 216.736 268.364 216.436L267.118 210.566ZM260.545 214.317C258.493 216.604 257.957 219.463 258.59 222.444L264.459 221.198C264.153 219.755 264.453 218.947 265.011 218.324L260.545 214.317ZM258.59 222.444C258.999 224.372 259.892 226.082 261.334 227.422C262.757 228.742 264.545 229.546 266.512 229.971L267.781 224.107C266.594 223.85 265.868 223.443 265.416 223.024C264.985 222.624 264.644 222.066 264.459 221.198L258.59 222.444ZM266.47 229.962C268 230.316 269.628 230.565 271.349 230.716L271.873 224.739C270.394 224.609 269.046 224.4 267.823 224.117L266.47 229.962ZM271.372 230.718C272.907 230.841 274.44 231.046 275.973 231.333L277.08 225.437C275.342 225.11 273.598 224.877 271.85 224.737L271.372 230.718ZM276.001 231.339C277.476 231.601 278.814 231.995 280.027 232.51L282.372 226.987C280.708 226.281 278.932 225.766 277.052 225.431L276.001 231.339ZM280.062 232.525C282.25 233.421 283.812 235.235 284.538 238.657L290.407 237.412C289.362 232.487 286.742 228.777 282.337 226.972L280.062 232.525ZM284.538 238.657C285.27 242.106 284.652 244.493 283.148 246.284L287.744 250.142C290.696 246.625 291.43 242.227 290.407 237.412L284.538 238.657ZM283.153 246.279C281.474 248.27 278.998 249.721 275.457 250.472L276.703 256.342C281.26 255.374 285.027 253.363 287.739 250.147L283.153 246.279ZM275.457 250.472C270.853 251.45 266.484 250.693 262.201 248.098L259.092 253.23C264.619 256.578 270.539 257.65 276.703 256.342L275.457 250.472ZM263.354 251.955L265.437 247.587L260.021 245.005L257.938 249.373L263.354 251.955ZM303.189 202.117L305.771 200.59L304.674 198.734L302.566 199.182L303.189 202.117ZM326.562 241.645L327.185 244.58L331.27 243.713L329.144 240.118L326.562 241.645ZM321.366 242.748L318.774 244.259L319.867 246.133L321.988 245.683L321.366 242.748ZM314.576 231.104L317.167 229.593L316.075 227.719L313.953 228.169L314.576 231.104ZM298.424 234.532L297.801 231.598L295.679 232.048L295.442 234.204L298.424 234.532ZM296.949 247.931L297.572 250.865L299.694 250.415L299.931 248.259L296.949 247.931ZM291.753 249.033L288.773 248.687L288.291 252.835L292.376 251.968L291.753 249.033ZM297.054 203.419L296.431 200.484L294.322 200.932L294.074 203.073L297.054 203.419ZM301.291 208.277L303.885 206.77L299.315 198.902L298.309 207.945L301.291 208.277ZM298.907 229.719L295.925 229.388L295.466 233.516L299.53 232.654L298.907 229.719ZM312.117 226.915L312.739 229.85L316.791 228.99L314.711 225.409L312.117 226.915ZM300.607 203.643L323.979 243.172L329.144 240.118L305.771 200.59L300.607 203.643ZM325.939 238.71L320.743 239.813L321.988 245.683L327.185 244.58L325.939 238.71ZM323.957 241.237L317.167 229.593L311.984 232.615L318.774 244.259L323.957 241.237ZM313.953 228.169L297.801 231.598L299.047 237.467L315.199 234.039L313.953 228.169ZM295.442 234.204L293.967 247.602L299.931 248.259L301.406 234.861L295.442 234.204ZM296.327 244.996L291.13 246.099L292.376 251.968L297.572 250.865L296.327 244.996ZM294.733 249.38L300.034 203.765L294.074 203.073L288.773 248.687L294.733 249.38ZM297.677 206.353L303.812 205.051L302.566 199.182L296.431 200.484L297.677 206.353ZM298.309 207.945L295.925 229.388L301.889 230.051L304.272 208.608L298.309 207.945ZM299.53 232.654L312.739 229.85L311.494 223.981L298.284 226.785L299.53 232.654ZM314.711 225.409L303.885 206.77L298.697 209.784L309.522 228.422L314.711 225.409ZM335.936 239.655L333.002 240.278L333.625 243.213L336.559 242.59L335.936 239.655ZM327.857 201.591L330.792 200.968L330.169 198.034L327.234 198.657L327.857 201.591ZM315.962 204.116L313.027 204.739L313.65 207.674L316.585 207.051L315.962 204.116ZM315.005 199.608L314.382 196.674L311.448 197.297L312.071 200.231L315.005 199.608ZM343.804 193.496L346.738 192.873L346.115 189.938L343.181 190.561L343.804 193.496ZM344.76 198.003L345.383 200.938L348.318 200.315L347.695 197.38L344.76 198.003ZM332.865 200.528L332.242 197.594L329.308 198.216L329.931 201.151L332.865 200.528ZM340.945 238.592L341.568 241.527L344.502 240.904L343.879 237.969L340.945 238.592ZM338.871 239.032L330.792 200.968L324.922 202.214L333.002 240.278L338.871 239.032ZM327.234 198.657L315.339 201.181L316.585 207.051L328.48 204.526L327.234 198.657ZM318.897 203.493L317.94 198.986L312.071 200.231L313.027 204.739L318.897 203.493ZM315.628 202.543L344.427 196.43L343.181 190.561L314.382 196.674L315.628 202.543ZM340.869 194.119L341.826 198.626L347.695 197.38L346.738 192.873L340.869 194.119ZM344.137 195.069L332.242 197.594L333.488 203.463L345.383 200.938L344.137 195.069ZM329.931 201.151L338.01 239.215L343.879 237.969L335.8 199.905L329.931 201.151ZM340.322 235.657L335.314 236.721L336.559 242.59L341.568 241.527L340.322 235.657ZM357.13 223.38L354.209 224.064L354.878 226.925L357.752 226.315L357.13 223.38ZM350.125 193.462L349.502 190.528L346.506 191.164L347.204 194.146L350.125 193.462ZM355.509 192.32L358.456 191.758L357.883 188.749L354.886 189.385L355.509 192.32ZM361.261 222.503L361.884 225.438L364.758 224.828L364.208 221.941L361.261 222.503ZM359.007 234.693L357.209 237.094L357.248 237.123L357.287 237.15L359.007 234.693ZM357.958 229.747L360.528 231.294L360.553 231.253L360.576 231.211L357.958 229.747ZM363.029 228.671L361.23 231.072L361.31 231.132L361.394 231.186L363.029 228.671ZM364.078 233.616L361.511 232.064L361.508 232.069L364.078 233.616ZM360.051 222.696L353.046 192.779L347.204 194.146L354.209 224.064L360.051 222.696ZM350.748 196.397L356.132 195.254L354.886 189.385L349.502 190.528L350.748 196.397ZM352.562 192.881L358.315 223.065L364.208 221.941L358.456 191.758L352.562 192.881ZM360.639 219.568L356.507 220.445L357.752 226.315L361.884 225.438L360.639 219.568ZM360.806 232.292C360.737 232.24 360.616 232.14 360.534 231.752L354.665 232.997C355.007 234.612 355.826 236.058 357.209 237.094L360.806 232.292ZM360.534 231.752C360.488 231.536 360.496 231.418 360.502 231.372C360.507 231.334 360.515 231.316 360.528 231.294L355.387 228.2C354.478 229.71 354.323 231.387 354.665 232.997L360.534 231.752ZM360.576 231.211C360.574 231.216 360.565 231.229 360.551 231.244C360.537 231.259 360.528 231.265 360.531 231.263C360.537 231.259 360.627 231.2 360.872 231.148L359.626 225.279C357.9 225.646 356.296 226.571 355.339 228.283L360.576 231.211ZM360.872 231.148C361.151 231.089 361.281 231.105 361.303 231.109C361.312 231.11 361.303 231.11 361.282 231.101C361.261 231.092 361.242 231.081 361.23 231.072L364.827 226.269C363.23 225.074 361.354 224.912 359.626 225.279L360.872 231.148ZM361.394 231.186C361.427 231.208 361.436 231.22 361.447 231.236C361.461 231.259 361.51 231.342 361.551 231.536L367.421 230.29C367.066 228.621 366.179 227.14 364.663 226.155L361.394 231.186ZM361.551 231.536C361.622 231.868 361.563 231.979 361.511 232.064L366.645 235.169C367.563 233.652 367.775 231.961 367.421 230.29L361.551 231.536ZM361.508 232.069C361.521 232.049 361.536 232.029 361.552 232.013C361.566 231.998 361.571 231.998 361.555 232.008C361.519 232.03 361.386 232.102 361.088 232.166L362.334 238.035C364.004 237.68 365.645 236.832 366.649 235.163L361.508 232.069ZM361.088 232.166C360.823 232.222 360.695 232.209 360.668 232.205C360.656 232.203 360.662 232.203 360.68 232.21C360.698 232.217 360.715 232.226 360.728 232.235L357.287 237.15C358.857 238.25 360.666 238.389 362.334 238.035L361.088 232.166Z" fill="#55636B"/>
</g>
<defs>
<filter id="filter0_d_2_6" x="7" y="8.99997" width="403" height="405" filterUnits="userSpaceOnUse" color-interpolation-filters="sRGB">
<feFlood flood-opacity="0" result="BackgroundImageFix"/>
<feColorMatrix in="SourceAlpha" type="matrix" values="0 0 0 0 0 0 0 0 0 0 0 0 0 0 0 0 0 0 127 0" result="hardAlpha"/>
<feOffset dx="4" dy="6"/>
<feGaussianBlur stdDeviation="2"/>
<feComposite in2="hardAlpha" operator="out"/>
<feColorMatrix type="matrix" values="0 0 0 0 0 0 0 0 0 0 0 0 0 0 0 0 0 0 0.25 0"/>
<feBlend mode="normal" in2="BackgroundImageFix" result="effect1_dropShadow_2_6"/>
<feBlend mode="normal" in="SourceGraphic" in2="effect1_dropShadow_2_6" result="shape"/>
</filter>
<filter id="filter1_d_2_6" x="32.1323" y="40.8807" width="314.416" height="323.448" filterUnits="userSpaceOnUse" color-interpolation-filters="sRGB">
<feFlood flood-opacity="0" result="BackgroundImageFix"/>
<feColorMatrix in="SourceAlpha" type="matrix" values="0 0 0 0 0 0 0 0 0 0 0 0 0 0 0 0 0 0 127 0" result="hardAlpha"/>
<feOffset dy="4"/>
<feGaussianBlur stdDeviation="2"/>
<feComposite in2="hardAlpha" operator="out"/>
<feColorMatrix type="matrix" values="0 0 0 0 0 0 0 0 0 0 0 0 0 0 0 0 0 0 0.25 0"/>
<feBlend mode="normal" in2="BackgroundImageFix" result="effect1_dropShadow_2_6"/>
<feBlend mode="normal" in="SourceGraphic" in2="effect1_dropShadow_2_6" result="shape"/>
</filter>
<filter id="filter2_d_2_6" x="31.2508" y="117.519" width="337.993" height="189.737" filterUnits="userSpaceOnUse" color-interpolation-filters="sRGB">
<feFlood flood-opacity="0" result="BackgroundImageFix"/>
<feColorMatrix in="SourceAlpha" type="matrix" values="0 0 0 0 0 0 0 0 0 0 0 0 0 0 0 0 0 0 127 0" result="hardAlpha"/>
<feOffset dy="4"/>
<feGaussianBlur stdDeviation="2"/>
<feComposite in2="hardAlpha" operator="out"/>
<feColorMatrix type="matrix" values="0 0 0 0 0 0 0 0 0 0 0 0 0 0 0 0 0 0 0.25 0"/>
<feBlend mode="normal" in2="BackgroundImageFix" result="effect1_dropShadow_2_6"/>
<feBlend mode="normal" in="SourceGraphic" in2="effect1_dropShadow_2_6" result="shape"/>
</filter>
</defs>
</svg>
